<svg id="svg" version="1.1" xmlns="http://www.w3.org/2000/svg" xmlns:xlink="http://www.w3.org/1999/xlink" width="400" height="400" viewBox="0, 0, 400,400"><g id="svgg"><path id="path0" d="M197.852 120.260 C 195.994 122.813,193.884 125.693,193.163 126.660 C 191.771 128.527,188.378 133.179,186.914 135.229 C 186.431 135.905,185.644 136.979,185.167 137.614 C 184.339 138.716,182.672 140.985,180.581 143.856 L 179.619 145.177 177.971 143.438 C 174.140 139.397,158.236 123.242,158.088 123.242 C 158.044 123.242,158.008 129.834,158.008 137.891 C 158.008 145.947,157.971 152.539,157.927 152.539 C 157.847 152.539,152.143 149.433,139.551 142.534 C 136.113 140.650,132.773 138.822,132.129 138.471 C 131.484 138.121,127.793 136.099,123.926 133.979 C 112.340 127.627,104.279 123.242,104.186 123.242 C 104.078 123.242,104.791 124.256,107.619 128.125 C 108.837 129.790,111.019 132.778,112.470 134.766 C 113.920 136.753,115.690 139.170,116.402 140.137 C 117.856 142.109,122.093 147.920,122.868 149.002 C 123.146 149.390,124.691 151.509,126.301 153.711 C 127.912 155.913,130.863 159.956,132.860 162.695 C 134.857 165.435,136.981 168.335,137.579 169.141 C 138.733 170.694,143.519 177.263,146.361 181.194 C 147.089 182.202,147.092 182.213,146.644 182.303 C 146.093 182.414,144.555 182.632,138.965 183.395 C 136.602 183.717,133.657 184.118,132.422 184.287 C 131.187 184.455,129.341 184.716,128.320 184.866 C 127.300 185.015,125.059 185.321,123.340 185.545 C 121.621 185.768,119.424 186.075,118.457 186.226 C 117.490 186.376,115.293 186.684,113.574 186.910 C 111.855 187.136,107.944 187.666,104.883 188.089 C 101.821 188.512,98.054 189.031,96.511 189.243 C 93.930 189.597,93.351 189.729,93.571 189.911 C 93.648 189.975,97.406 191.930,102.734 194.679 C 104.077 195.372,106.670 196.711,108.496 197.656 C 112.066 199.503,116.205 201.631,122.266 204.734 C 124.360 205.807,127.612 207.483,129.492 208.459 C 131.372 209.435,133.591 210.581,134.424 211.007 C 136.379 212.006,136.418 211.915,133.057 214.213 C 131.472 215.296,128.989 217.000,127.539 217.998 C 123.729 220.621,119.963 223.184,117.342 224.936 C 116.085 225.777,115.052 226.531,115.047 226.611 C 115.040 226.734,144.901 226.896,146.240 226.781 C 147.017 226.714,145.909 229.775,144.623 231.250 C 144.482 231.411,144.067 232.070,143.701 232.715 C 143.334 233.359,141.955 235.732,140.636 237.988 C 130.727 254.933,125.758 263.519,125.823 263.578 C 125.854 263.606,127.988 262.177,130.566 260.403 C 133.145 258.629,137.056 255.944,139.258 254.436 C 143.791 251.332,147.344 248.895,152.441 245.393 C 154.375 244.065,157.529 241.899,159.450 240.581 C 166.214 235.939,168.953 234.058,172.471 231.641 C 181.051 225.746,183.470 224.086,186.133 222.267 C 187.690 221.203,189.185 220.154,189.453 219.936 C 190.333 219.222,190.566 219.630,191.677 223.828 C 191.833 224.419,192.149 225.474,192.378 226.172 C 192.608 226.870,193.046 228.320,193.353 229.395 C 193.988 231.618,197.137 242.327,198.149 245.703 C 199.162 249.081,199.962 251.815,200.626 254.158 C 200.954 255.316,201.249 256.238,201.282 256.205 C 201.355 256.132,204.170 248.544,205.468 244.922 C 205.988 243.472,206.692 241.538,207.033 240.625 C 207.373 239.712,207.725 238.745,207.815 238.477 C 207.904 238.208,208.346 236.978,208.796 235.742 C 209.246 234.507,209.948 232.573,210.356 231.445 C 212.144 226.501,211.967 226.747,212.933 227.857 C 213.286 228.263,215.024 230.231,216.797 232.232 C 218.569 234.232,222.393 238.579,225.293 241.891 C 228.193 245.203,231.613 249.108,232.893 250.568 C 234.173 252.028,237.293 255.590,239.827 258.483 L 244.434 263.743 244.483 241.637 C 244.534 218.927,244.530 219.068,245.225 219.700 C 245.327 219.793,246.025 220.201,246.777 220.608 C 248.004 221.271,252.387 223.680,254.688 224.956 C 255.171 225.224,256.138 225.751,256.836 226.127 C 258.539 227.043,259.776 227.722,262.793 229.394 C 265.205 230.731,266.108 231.228,268.701 232.645 C 269.319 232.982,271.538 234.201,273.633 235.353 C 275.728 236.505,278.452 238.001,279.688 238.678 C 280.923 239.355,282.285 240.104,282.715 240.341 C 286.113 242.218,287.348 242.899,288.281 243.410 C 288.872 243.734,289.751 244.220,290.234 244.489 C 290.718 244.758,291.575 245.230,292.139 245.536 C 292.703 245.843,293.669 246.370,294.287 246.708 C 294.905 247.046,295.966 247.625,296.644 247.996 C 297.323 248.367,297.922 248.627,297.976 248.573 C 298.062 248.487,294.936 244.704,294.151 243.945 C 293.984 243.784,293.366 243.081,292.776 242.383 C 292.187 241.684,291.616 241.018,291.507 240.903 C 291.398 240.787,290.210 239.431,288.867 237.890 C 287.524 236.349,286.030 234.636,285.547 234.083 C 285.063 233.530,284.185 232.516,283.594 231.828 C 283.003 231.141,281.772 229.735,280.859 228.704 C 279.946 227.673,278.452 225.966,277.539 224.909 C 276.626 223.853,275.788 222.892,275.677 222.774 C 275.124 222.186,271.715 218.238,271.289 217.692 C 271.021 217.348,270.303 216.544,269.695 215.906 C 266.440 212.489,266.149 211.908,267.580 211.682 C 268.063 211.606,269.468 211.362,270.703 211.139 C 275.525 210.268,282.659 209.027,285.352 208.590 C 285.942 208.494,287.920 208.158,289.746 207.843 C 291.572 207.528,296.538 206.689,300.781 205.978 C 305.024 205.267,308.648 204.620,308.834 204.540 C 309.080 204.434,308.420 204.054,306.392 203.135 C 304.864 202.442,302.615 201.410,301.396 200.840 C 300.176 200.271,299.145 199.805,299.105 199.805 C 299.064 199.805,298.304 199.465,297.416 199.049 C 296.528 198.634,295.361 198.095,294.824 197.851 C 291.192 196.204,284.773 193.269,283.301 192.582 C 282.334 192.131,280.972 191.500,280.273 191.180 C 278.341 190.292,277.329 189.783,277.252 189.658 C 277.214 189.596,278.383 188.305,279.851 186.788 C 281.319 185.271,284.585 181.891,287.109 179.276 C 289.634 176.661,293.179 172.996,294.988 171.132 C 296.796 169.268,298.234 167.700,298.182 167.648 C 298.130 167.596,293.838 168.532,288.644 169.727 C 283.449 170.922,277.661 172.246,275.781 172.670 C 273.901 173.094,272.012 173.523,271.582 173.624 C 271.152 173.725,270.010 173.993,269.043 174.219 C 266.606 174.792,266.616 174.790,266.487 174.581 C 266.423 174.478,266.504 174.113,266.666 173.769 C 266.828 173.426,267.223 172.482,267.544 171.673 C 268.079 170.321,269.636 166.589,270.149 165.430 C 270.268 165.161,270.432 164.766,270.514 164.551 C 270.596 164.336,270.796 163.853,270.957 163.477 C 271.119 163.101,271.973 161.035,272.854 158.887 C 274.636 154.544,274.778 154.204,275.368 152.883 C 275.595 152.374,275.781 151.912,275.781 151.855 C 275.781 151.799,275.948 151.381,276.152 150.926 C 276.730 149.633,278.125 146.286,278.125 146.191 C 278.125 146.144,278.337 145.641,278.596 145.074 C 278.855 144.507,279.434 143.120,279.882 141.992 C 280.330 140.864,280.817 139.678,280.966 139.355 C 281.211 138.822,283.339 133.691,286.345 126.385 C 286.982 124.837,287.461 123.528,287.409 123.477 C 287.358 123.426,286.083 124.451,284.576 125.756 C 283.068 127.061,281.638 128.296,281.396 128.502 C 281.155 128.707,279.902 129.772,278.613 130.867 C 276.246 132.879,274.168 134.659,268.440 139.584 C 266.712 141.070,264.822 142.690,264.241 143.185 C 263.225 144.049,257.455 149.000,256.445 149.872 C 249.187 156.149,244.849 159.766,244.580 159.766 C 244.469 159.766,244.025 159.041,243.596 158.154 C 243.166 157.268,242.048 154.961,241.111 153.027 C 240.174 151.094,238.188 147.021,236.696 143.976 C 235.205 140.931,233.984 138.360,233.984 138.263 C 233.984 137.250,233.650 138.056,230.374 146.973 C 229.015 150.672,227.651 154.373,225.263 160.840 C 224.470 162.988,223.740 164.922,223.642 165.137 C 223.544 165.352,223.352 165.857,223.216 166.260 C 223.080 166.663,222.908 166.992,222.834 166.992 C 222.711 166.992,221.875 165.374,221.875 165.137 C 221.875 165.081,221.711 164.662,221.510 164.207 C 221.017 163.090,219.461 159.333,218.949 158.024 C 218.721 157.441,218.373 156.606,218.177 156.168 C 217.980 155.730,217.096 153.613,216.213 151.465 C 214.734 147.870,214.319 146.872,213.853 145.801 C 213.205 144.310,211.761 140.835,211.103 139.181 C 210.670 138.095,210.157 136.855,209.962 136.426 C 209.634 135.701,209.334 134.979,207.482 130.469 C 207.108 129.556,206.677 128.523,206.525 128.174 C 206.374 127.825,206.126 127.253,205.974 126.904 C 205.823 126.555,205.306 125.303,204.826 124.121 C 203.722 121.404,201.345 115.740,201.280 115.670 C 201.252 115.642,199.710 117.707,197.852 120.260 M206.449 136.816 C 209.692 144.336,213.292 152.686,214.450 155.371 C 220.624 169.683,222.056 173.010,222.310 173.633 C 222.668 174.511,222.040 175.982,228.334 159.527 C 231.280 151.822,233.743 145.516,233.806 145.513 C 233.869 145.510,235.310 148.518,237.008 152.197 C 238.707 155.876,240.757 160.317,241.564 162.065 L 243.031 165.244 243.439 164.880 C 243.664 164.680,246.660 162.064,250.098 159.067 C 253.535 156.071,256.655 153.344,257.031 153.008 C 257.407 152.672,260.220 150.213,263.281 147.543 C 266.343 144.873,270.906 140.884,273.423 138.678 C 279.990 132.921,280.870 132.172,280.956 132.258 C 280.999 132.301,279.159 136.508,276.868 141.607 C 274.576 146.707,269.785 157.370,266.221 165.303 C 262.657 173.237,259.779 179.766,259.826 179.813 C 259.900 179.887,263.930 178.881,274.414 176.172 C 283.481 173.828,289.552 172.300,289.600 172.348 C 289.648 172.396,273.714 184.947,269.400 188.261 C 267.397 189.798,267.361 189.610,269.873 190.728 C 271.028 191.242,272.676 191.987,273.535 192.383 C 274.395 192.778,279.913 195.284,285.798 197.950 C 291.683 200.617,296.430 202.859,296.345 202.933 C 296.261 203.007,294.961 203.263,293.457 203.500 C 291.953 203.738,288.306 204.324,285.352 204.804 C 282.397 205.283,278.926 205.846,277.637 206.054 C 275.522 206.397,267.085 207.772,260.745 208.808 C 259.404 209.027,258.273 209.240,258.233 209.281 C 258.192 209.321,260.431 211.799,263.210 214.786 C 265.988 217.773,269.842 221.930,271.773 224.025 C 273.705 226.119,275.865 228.447,276.575 229.199 C 277.284 229.951,278.998 231.797,280.383 233.301 C 281.768 234.805,283.404 236.560,284.017 237.202 C 284.631 237.844,285.100 238.402,285.060 238.443 C 285.020 238.483,280.565 235.985,275.160 232.892 C 246.513 216.501,240.188 212.891,240.118 212.891 C 240.075 212.891,240.018 222.125,239.991 233.412 L 239.941 253.933 238.206 251.918 C 222.126 233.247,211.020 220.570,210.904 220.757 C 210.828 220.881,208.675 226.497,206.121 233.236 C 203.568 239.975,201.461 245.471,201.441 245.449 C 201.421 245.428,200.815 243.301,200.095 240.723 C 199.375 238.145,197.999 233.223,197.037 229.785 C 196.075 226.348,194.714 221.470,194.014 218.945 C 193.313 216.421,192.679 214.292,192.606 214.214 C 192.484 214.086,188.199 216.955,175.939 225.374 C 172.218 227.930,163.803 233.687,150.195 242.987 C 148.745 243.978,145.201 246.406,142.319 248.383 C 136.409 252.437,136.264 252.521,136.856 251.549 C 137.080 251.180,138.402 248.857,139.794 246.387 C 141.186 243.916,144.068 238.818,146.199 235.059 C 148.330 231.299,150.669 227.168,151.397 225.879 L 152.721 223.535 138.939 223.438 L 125.158 223.340 130.204 219.922 C 132.980 218.042,136.945 215.367,139.015 213.977 C 141.085 212.588,142.712 211.389,142.630 211.313 C 142.548 211.238,140.195 209.967,137.402 208.490 C 134.609 207.012,129.556 204.334,126.172 202.538 C 122.788 200.742,116.654 197.491,112.541 195.314 C 108.428 193.138,105.091 191.328,105.126 191.294 C 105.193 191.227,107.417 190.899,112.207 190.252 C 120.291 189.159,122.720 188.827,124.512 188.572 C 125.586 188.419,129.409 187.897,133.008 187.414 C 141.177 186.315,153.916 184.581,154.268 184.519 C 154.432 184.490,154.052 183.846,153.263 182.813 C 151.898 181.028,128.373 150.000,120.537 139.652 C 117.922 136.198,115.818 133.336,115.862 133.292 C 115.940 133.214,116.876 133.739,123.535 137.599 C 125.254 138.595,131.802 142.380,138.086 146.009 C 144.370 149.639,152.280 154.211,155.664 156.169 L 161.816 159.728 161.879 158.624 C 161.933 157.680,161.588 144.551,161.226 133.789 L 161.117 130.566 162.900 132.422 C 164.646 134.239,166.876 136.522,175.823 145.648 L 180.259 150.172 180.822 149.451 C 181.294 148.848,188.676 138.776,198.126 125.842 C 199.318 124.211,200.352 122.937,200.424 123.010 C 200.496 123.084,203.207 129.297,206.449 136.816 M146.700 186.746 C 143.396 187.792,142.481 189.776,142.481 195.898 C 142.481 201.132,142.668 201.873,144.438 203.643 C 146.622 205.827,150.320 205.832,151.742 203.653 C 152.412 202.625,152.734 202.707,152.734 203.906 L 152.734 204.883 154.199 204.883 L 155.664 204.883 155.664 200.293 L 155.664 195.703 151.855 195.703 L 148.047 195.703 148.047 197.363 L 148.047 199.023 150.220 199.023 L 152.393 199.023 152.268 199.648 C 151.708 202.449,147.537 202.872,146.271 200.256 C 145.411 198.479,145.534 192.267,146.454 191.016 C 148.271 188.545,152.344 189.654,152.344 192.620 L 152.344 193.164 154.004 193.164 L 155.664 193.164 155.664 192.292 C 155.664 188.104,151.178 185.328,146.700 186.746 M258.361 186.603 C 256.520 187.135,255.220 188.299,254.317 190.225 C 253.562 191.835,253.532 199.594,254.273 201.465 C 255.790 205.293,261.095 206.651,263.049 203.711 C 263.606 202.873,263.956 202.836,263.993 203.613 C 264.008 203.936,264.030 204.353,264.042 204.541 C 264.060 204.836,264.275 204.883,265.625 204.883 L 267.188 204.883 267.188 200.293 L 267.188 195.703 263.281 195.703 L 259.375 195.703 259.375 197.363 L 259.375 199.023 261.548 199.023 L 263.721 199.023 263.596 199.658 C 263.052 202.437,258.856 202.820,257.568 200.208 C 257.162 199.383,257.129 199.052,257.129 195.801 C 257.129 191.695,257.367 190.862,258.767 190.075 C 260.893 188.880,263.224 189.999,263.635 192.413 L 263.780 193.262 265.014 193.327 C 267.088 193.437,267.146 193.396,266.967 191.910 C 266.482 187.888,262.472 185.414,258.361 186.603 M173.763 186.654 C 173.691 186.725,173.633 190.856,173.633 195.833 L 173.633 204.883 175.195 204.883 L 176.758 204.883 176.739 198.584 C 176.729 195.120,176.663 191.464,176.593 190.460 C 176.473 188.755,176.578 188.199,176.946 188.601 C 177.030 188.694,177.377 192.197,177.717 196.387 C 178.056 200.576,178.376 204.202,178.428 204.443 C 178.521 204.871,178.588 204.883,181.033 204.883 L 183.543 204.883 183.664 203.760 C 183.731 203.142,184.007 199.824,184.279 196.387 C 184.900 188.531,184.907 188.477,185.294 188.477 C 185.556 188.477,185.583 188.659,185.470 189.697 C 185.267 191.578,185.097 202.217,185.248 203.629 L 185.383 204.883 186.834 204.883 L 188.285 204.883 188.234 195.752 L 188.184 186.621 185.313 186.567 L 182.442 186.513 182.338 187.153 C 182.282 187.505,182.098 189.727,181.930 192.090 C 181.762 194.453,181.540 197.354,181.438 198.535 C 181.335 199.717,181.251 201.189,181.251 201.807 C 181.250 202.674,181.183 202.930,180.957 202.930 C 180.722 202.930,180.664 202.632,180.664 201.424 C 180.664 199.852,179.735 187.193,179.589 186.768 C 179.498 186.505,174.019 186.398,173.763 186.654 M222.070 188.184 L 222.070 189.844 224.512 189.844 L 226.953 189.844 226.953 197.266 L 226.953 204.688 228.592 204.688 C 230.662 204.688,230.481 205.432,230.463 196.994 L 230.449 189.941 232.803 189.887 L 235.156 189.832 235.156 188.178 L 235.156 186.523 228.613 186.523 L 222.070 186.523 222.070 188.184 M161.816 186.963 C 161.673 187.369,157.617 204.504,157.617 204.700 C 157.617 204.801,158.402 204.883,159.362 204.883 L 161.106 204.883 161.543 202.930 L 161.979 200.977 165.068 200.977 L 168.157 200.977 168.280 201.514 C 168.347 201.809,168.552 202.666,168.734 203.418 L 169.066 204.785 170.845 204.841 C 172.468 204.892,172.616 204.866,172.544 204.548 C 172.369 203.782,169.490 191.730,168.903 189.307 L 168.276 186.719 165.089 186.719 C 162.715 186.719,161.880 186.781,161.816 186.963 M191.016 195.804 L 191.016 204.889 196.924 204.837 L 202.832 204.785 202.818 203.223 L 202.804 201.660 198.668 201.607 L 194.531 201.555 194.531 199.508 L 194.531 197.461 198.340 197.461 L 202.148 197.461 202.148 195.801 L 202.148 194.141 198.340 194.141 L 194.531 194.141 194.531 192.090 L 194.531 190.039 198.535 190.039 L 202.539 190.039 202.539 188.379 L 202.539 186.719 196.777 186.719 L 191.016 186.719 191.016 195.804 M241.306 186.963 C 241.176 187.326,237.305 203.509,237.172 204.248 L 237.058 204.883 238.828 204.883 L 240.599 204.883 241.035 202.930 L 241.471 200.977 244.543 200.977 C 246.823 200.977,247.637 201.039,247.701 201.221 C 247.749 201.355,247.954 202.234,248.157 203.174 L 248.526 204.883 250.350 204.883 C 251.998 204.883,252.165 204.850,252.070 204.541 C 252.012 204.353,251.567 202.529,251.082 200.488 C 250.596 198.447,249.672 194.580,249.027 191.895 C 248.383 189.209,247.855 186.946,247.854 186.865 C 247.850 186.595,241.404 186.691,241.306 186.963 M165.301 188.623 C 165.350 188.704,165.802 190.615,166.304 192.871 C 166.807 195.127,167.261 197.126,167.313 197.314 C 167.401 197.626,167.203 197.656,165.039 197.656 C 162.872 197.656,162.678 197.627,162.775 197.314 C 162.833 197.126,163.282 195.215,163.773 193.066 C 164.906 188.109,164.935 188.025,165.301 188.623 M245.842 192.985 C 246.402 195.393,246.864 197.429,246.868 197.510 C 246.872 197.590,245.814 197.656,244.518 197.656 C 242.355 197.656,242.170 197.628,242.271 197.312 C 242.331 197.122,242.780 195.211,243.269 193.064 C 244.347 188.330,244.315 188.437,244.596 188.531 C 244.721 188.572,245.282 190.577,245.842 192.985 " stroke="none" fill="#e71d1c" fill-rule="evenodd"></path><path id="path1" d="M204.997 121.462 C 204.147 122.620,204.147 122.401,204.998 124.523 C 205.679 126.219,205.877 126.694,206.502 128.125 C 206.667 128.501,207.108 129.556,207.482 130.469 C 209.334 134.979,209.634 135.701,209.962 136.426 C 210.157 136.855,210.670 138.095,211.103 139.181 C 211.761 140.835,213.205 144.310,213.853 145.801 C 214.319 146.872,214.734 147.870,216.213 151.465 C 217.096 153.613,217.980 155.730,218.177 156.168 C 218.373 156.606,218.721 157.441,218.949 158.024 C 219.461 159.333,221.017 163.090,221.510 164.207 C 221.711 164.662,221.875 165.081,221.875 165.137 C 221.875 165.383,222.713 166.992,222.842 166.992 C 222.920 166.992,223.105 166.619,223.253 166.162 C 223.401 165.706,223.635 165.112,223.772 164.844 C 223.909 164.575,224.022 164.211,224.022 164.034 C 224.023 163.724,223.039 161.335,213.767 139.160 C 211.431 133.574,208.973 127.686,208.304 126.074 C 205.587 119.528,205.997 120.100,204.997 121.462 M291.008 128.869 C 290.305 129.480,288.020 131.437,285.930 133.218 C 282.829 135.860,282.079 136.597,281.857 137.222 C 281.708 137.643,281.386 138.428,281.142 138.965 C 280.898 139.502,280.331 140.864,279.883 141.992 C 279.434 143.120,278.855 144.507,278.596 145.074 C 278.337 145.641,278.125 146.144,278.125 146.191 C 278.125 146.286,276.730 149.633,276.152 150.926 C 275.948 151.381,275.781 151.799,275.781 151.855 C 275.781 151.912,275.595 152.374,275.368 152.883 C 274.778 154.204,274.636 154.544,272.854 158.887 C 271.973 161.035,271.119 163.101,270.957 163.477 C 270.796 163.853,270.573 164.380,270.462 164.648 C 270.178 165.335,270.049 165.643,269.030 168.060 C 268.533 169.237,267.864 170.863,267.544 171.673 C 267.223 172.482,266.828 173.426,266.666 173.769 C 266.504 174.113,266.423 174.478,266.487 174.581 C 266.615 174.790,266.627 174.788,268.945 174.239 C 269.858 174.023,271.239 173.699,272.014 173.519 L 273.422 173.193 274.631 170.337 C 275.296 168.766,276.035 166.997,276.273 166.406 C 276.511 165.815,280.174 157.026,284.415 146.875 C 292.052 128.592,292.411 127.724,292.328 127.746 C 292.304 127.752,291.710 128.258,291.008 128.869 M238.104 143.213 C 238.012 143.455,237.794 143.993,237.620 144.410 C 237.258 145.276,236.830 144.207,240.920 152.637 C 242.067 155.000,243.314 157.571,243.691 158.350 C 244.068 159.128,244.477 159.763,244.600 159.760 C 245.007 159.751,246.207 158.609,245.977 158.450 C 245.860 158.368,245.708 158.081,245.640 157.813 C 245.572 157.544,245.319 157.017,245.078 156.641 C 244.838 156.265,244.629 155.822,244.615 155.657 C 244.586 155.324,244.252 154.612,240.848 147.607 C 238.381 142.532,238.370 142.514,238.104 143.213 M301.465 172.557 C 300.928 172.694,298.467 173.254,295.996 173.802 L 291.504 174.799 288.770 177.615 C 287.266 179.164,284.058 182.464,281.641 184.948 C 279.224 187.433,277.266 189.528,277.289 189.606 C 277.341 189.773,278.439 190.346,280.566 191.316 C 281.426 191.708,282.391 192.155,282.711 192.310 L 283.292 192.593 285.149 190.681 C 286.170 189.630,290.589 185.108,294.968 180.633 C 299.347 176.157,302.930 172.444,302.930 172.381 C 302.930 172.226,302.622 172.263,301.465 172.557 M99.512 194.041 C 99.404 194.077,99.061 194.163,98.749 194.233 C 97.909 194.419,98.130 194.561,103.613 197.362 C 106.299 198.735,109.639 200.449,111.035 201.173 C 112.432 201.897,115.244 203.347,117.285 204.395 C 122.913 207.286,127.125 209.457,130.423 211.168 C 132.063 212.019,133.490 212.662,133.595 212.597 C 133.803 212.469,134.421 212.748,134.392 212.957 C 134.383 213.028,134.375 213.131,134.375 213.186 C 134.375 213.242,134.727 213.054,135.156 212.770 C 136.229 212.060,136.160 211.894,134.424 211.007 C 133.591 210.581,131.372 209.435,129.492 208.459 C 127.612 207.483,124.360 205.807,122.266 204.734 C 116.505 201.784,112.192 199.566,108.301 197.554 C 101.230 193.898,101.331 193.944,100.497 193.961 C 100.063 193.969,99.619 194.005,99.512 194.041 M271.324 217.750 C 271.764 218.294,275.268 222.340,275.677 222.774 C 275.788 222.892,276.626 223.853,277.539 224.909 C 278.452 225.966,279.946 227.673,280.859 228.704 C 281.772 229.735,283.003 231.141,283.594 231.828 C 284.185 232.516,285.063 233.530,285.547 234.083 C 286.030 234.636,287.524 236.349,288.867 237.890 C 290.210 239.431,291.398 240.787,291.507 240.903 C 291.616 241.018,292.187 241.684,292.776 242.383 C 293.366 243.081,293.984 243.784,294.151 243.945 C 294.936 244.704,298.062 248.487,297.976 248.573 C 297.922 248.627,297.323 248.367,296.644 247.996 C 295.966 247.625,294.905 247.046,294.287 246.708 C 293.669 246.370,292.703 245.843,292.139 245.536 C 291.575 245.230,290.718 244.758,290.234 244.489 C 289.751 244.220,288.872 243.734,288.281 243.410 C 287.348 242.899,286.113 242.218,282.715 240.341 C 282.285 240.104,280.923 239.355,279.688 238.678 C 278.452 238.001,275.728 236.505,273.633 235.353 C 271.538 234.201,269.319 232.982,268.701 232.645 C 266.108 231.228,265.205 230.731,262.793 229.394 C 259.776 227.722,258.539 227.043,256.836 226.127 C 256.138 225.751,255.171 225.224,254.688 224.956 C 252.387 223.680,248.004 221.271,246.777 220.608 C 246.025 220.201,245.327 219.793,245.225 219.700 C 244.526 219.065,244.531 218.913,244.531 241.394 L 244.531 263.257 246.729 265.743 L 248.926 268.230 248.975 246.224 C 249.012 230.111,249.084 224.219,249.244 224.219 C 249.472 224.219,250.011 224.505,256.055 227.833 C 258.042 228.928,260.459 230.247,261.426 230.765 C 262.393 231.283,263.975 232.145,264.941 232.680 C 265.908 233.216,267.183 233.918,267.773 234.240 C 268.364 234.563,270.562 235.766,272.656 236.915 C 274.751 238.063,277.036 239.311,277.734 239.688 C 278.433 240.065,279.795 240.811,280.762 241.346 C 281.729 241.881,283.091 242.626,283.789 243.003 C 284.487 243.379,288.926 245.806,293.652 248.396 C 303.148 253.598,303.275 253.661,302.528 252.813 C 298.408 248.136,297.367 246.949,296.288 245.706 C 295.590 244.902,294.787 243.979,294.503 243.655 C 294.219 243.331,291.681 240.430,288.862 237.207 C 286.043 233.984,283.234 230.776,282.619 230.078 C 282.004 229.380,279.612 226.655,277.304 224.023 C 273.125 219.258,271.212 217.188,270.988 217.188 C 270.923 217.188,271.074 217.440,271.324 217.750 M189.453 219.936 C 189.185 220.154,187.690 221.203,186.133 222.267 C 183.470 224.086,181.051 225.746,172.471 231.641 C 168.953 234.058,166.214 235.939,159.450 240.581 C 157.529 241.899,154.375 244.065,152.441 245.393 C 150.508 246.722,147.607 248.714,145.996 249.821 C 144.385 250.928,141.874 252.644,140.417 253.635 L 137.767 255.436 135.841 258.724 C 134.782 260.532,133.189 263.243,132.301 264.749 C 131.413 266.254,130.625 267.649,130.548 267.848 C 130.356 268.348,130.350 268.352,136.083 264.418 C 142.250 260.186,161.818 246.790,165.284 244.427 C 166.707 243.457,169.151 241.787,170.715 240.716 C 172.279 239.645,177.096 236.353,181.418 233.398 C 192.557 225.786,192.094 226.127,192.065 225.571 C 192.007 224.450,190.460 219.530,190.168 219.536 C 190.043 219.538,189.722 219.718,189.453 219.936 M211.791 227.490 C 211.730 227.678,211.546 228.184,211.381 228.613 C 211.217 229.043,210.752 230.317,210.348 231.445 C 209.944 232.573,209.246 234.507,208.796 235.742 C 208.346 236.978,207.904 238.208,207.815 238.477 C 207.725 238.745,207.373 239.712,207.033 240.625 C 206.692 241.538,205.988 243.472,205.470 244.922 C 204.951 246.372,204.211 248.394,203.826 249.414 C 203.442 250.435,203.124 251.357,203.121 251.465 C 203.109 251.829,205.761 260.740,205.881 260.741 C 206.041 260.742,216.455 232.073,216.373 231.859 C 216.216 231.448,212.376 227.178,212.152 227.164 C 212.014 227.156,211.852 227.302,211.791 227.490 " stroke="none" fill="#524e4e" fill-rule="evenodd"></path><path id="path2" d="M199.348 117.685 C 198.510 118.925,197.454 120.397,197.001 120.956 C 195.706 122.554,193.883 124.997,193.107 126.172 C 192.197 127.551,189.093 131.806,185.753 136.251 C 184.309 138.173,182.496 140.680,181.725 141.821 C 180.954 142.962,180.142 144.077,179.920 144.299 L 179.517 144.702 177.210 142.242 C 175.941 140.889,173.672 138.540,172.168 137.022 C 170.664 135.503,166.929 131.695,163.867 128.558 C 160.806 125.422,158.191 122.855,158.057 122.854 C 157.741 122.851,157.758 121.785,157.810 138.037 C 157.834 145.798,157.799 152.148,157.732 152.148 C 157.538 152.148,155.633 151.131,154.890 150.631 C 154.186 150.157,150.257 147.989,143.750 144.485 C 141.655 143.356,138.667 141.710,137.109 140.825 C 135.552 139.941,132.344 138.206,129.980 136.970 C 127.617 135.734,125.552 134.613,125.391 134.480 C 125.229 134.347,124.395 133.861,123.535 133.399 C 122.676 132.937,120.742 131.880,119.238 131.050 C 117.734 130.221,115.186 128.859,113.574 128.024 C 111.963 127.189,110.381 126.309,110.059 126.068 C 109.276 125.483,104.293 122.852,103.968 122.852 C 103.449 122.852,104.052 124.115,104.899 124.805 C 104.965 124.858,105.620 125.781,106.355 126.855 C 107.796 128.962,108.651 130.143,112.014 134.668 C 114.503 138.018,117.001 141.465,119.189 144.568 C 120.022 145.749,121.086 147.168,121.554 147.722 C 122.023 148.277,123.225 149.917,124.226 151.367 C 125.837 153.703,128.223 156.973,129.996 159.277 C 130.327 159.707,131.158 160.850,131.843 161.816 C 133.461 164.101,136.233 167.900,137.541 169.625 C 138.536 170.939,140.784 174.043,143.652 178.064 C 144.403 179.118,145.385 180.432,145.834 180.984 L 146.649 181.988 145.151 182.210 C 144.327 182.332,142.378 182.612,140.820 182.831 C 139.263 183.051,137.461 183.321,136.816 183.431 C 136.172 183.541,135.249 183.699,134.766 183.782 C 132.454 184.177,135.320 183.922,138.972 183.407 C 141.224 183.089,143.770 182.732,144.629 182.614 C 147.376 182.236,147.211 182.371,146.361 181.194 C 143.519 177.263,138.733 170.694,137.579 169.141 C 136.981 168.335,134.857 165.435,132.860 162.695 C 130.863 159.956,127.912 155.913,126.301 153.711 C 124.691 151.509,123.146 149.390,122.868 149.002 C 122.093 147.920,117.856 142.109,116.402 140.137 C 115.690 139.170,113.920 136.753,112.470 134.766 C 111.019 132.778,108.837 129.790,107.619 128.125 C 104.791 124.256,104.078 123.242,104.186 123.242 C 104.279 123.242,112.340 127.627,123.926 133.979 C 127.793 136.099,131.484 138.121,132.129 138.471 C 132.773 138.822,136.113 140.650,139.551 142.534 C 152.143 149.433,157.847 152.539,157.927 152.539 C 157.971 152.539,158.008 145.909,158.008 137.806 L 158.008 123.073 164.214 129.359 C 171.256 136.490,175.572 140.907,177.971 143.438 L 179.619 145.177 180.581 143.856 C 182.672 140.985,184.339 138.716,185.167 137.614 C 185.644 136.979,186.431 135.905,186.914 135.229 C 188.378 133.179,191.771 128.527,193.163 126.660 C 193.884 125.693,195.994 122.813,197.852 120.260 C 199.710 117.707,201.252 115.642,201.280 115.670 C 201.307 115.699,201.906 117.109,202.611 118.803 C 204.331 122.940,204.104 122.679,204.967 121.503 C 205.369 120.956,205.760 120.508,205.837 120.508 C 205.974 120.508,206.491 121.709,210.654 131.693 C 211.809 134.461,212.785 136.694,212.825 136.654 C 212.925 136.554,207.961 124.267,206.668 121.417 C 205.980 119.899,205.989 119.900,204.947 121.112 L 204.175 122.009 203.129 119.354 C 202.554 117.894,201.971 116.414,201.833 116.064 C 201.402 114.973,201.005 115.233,199.348 117.685 M198.126 125.842 C 188.676 138.776,181.294 148.848,180.822 149.451 L 180.259 150.172 175.823 145.648 C 166.876 136.522,164.646 134.239,162.900 132.422 L 161.117 130.566 161.226 133.789 C 161.588 144.551,161.933 157.680,161.879 158.624 L 161.816 159.728 155.664 156.169 C 152.280 154.211,144.370 149.639,138.086 146.009 C 131.802 142.380,125.254 138.595,123.535 137.599 C 116.876 133.739,115.940 133.214,115.862 133.292 C 115.818 133.336,117.922 136.198,120.537 139.652 C 128.373 150.000,151.898 181.028,153.263 182.813 C 154.052 183.846,154.432 184.490,154.268 184.519 C 153.916 184.581,141.177 186.315,133.008 187.414 C 129.409 187.897,125.586 188.419,124.512 188.572 C 122.720 188.827,120.291 189.159,112.207 190.252 C 107.417 190.899,105.193 191.227,105.126 191.294 C 105.091 191.328,108.428 193.138,112.541 195.314 C 116.654 197.491,122.788 200.742,126.172 202.538 C 129.556 204.334,134.609 207.012,137.402 208.490 C 140.195 209.967,142.548 211.238,142.630 211.313 C 142.712 211.389,141.085 212.588,139.015 213.977 C 136.945 215.367,132.980 218.042,130.204 219.922 L 125.158 223.340 138.939 223.438 L 152.721 223.535 151.397 225.879 C 150.669 227.168,148.330 231.299,146.199 235.059 C 144.068 238.818,141.186 243.916,139.794 246.387 C 138.402 248.857,137.080 251.180,136.856 251.549 C 136.264 252.521,136.409 252.437,142.319 248.383 C 145.201 246.406,148.745 243.978,150.195 242.987 C 163.803 233.687,172.218 227.930,175.939 225.374 C 188.199 216.955,192.484 214.086,192.606 214.214 C 192.679 214.292,193.313 216.421,194.014 218.945 C 194.714 221.470,196.075 226.348,197.037 229.785 C 197.999 233.223,199.375 238.145,200.095 240.723 C 200.815 243.301,201.421 245.428,201.441 245.449 C 201.461 245.471,203.568 239.975,206.121 233.236 C 208.675 226.497,210.828 220.881,210.904 220.757 C 211.020 220.570,222.126 233.247,238.206 251.918 L 239.941 253.933 239.991 233.412 C 240.018 222.125,240.075 212.891,240.118 212.891 C 240.188 212.891,246.513 216.501,275.160 232.892 C 280.565 235.985,285.020 238.483,285.060 238.443 C 285.100 238.402,284.631 237.844,284.017 237.202 C 283.404 236.560,281.768 234.805,280.383 233.301 C 278.998 231.797,277.284 229.951,276.575 229.199 C 275.865 228.447,273.705 226.119,271.773 224.025 C 269.842 221.930,265.988 217.773,263.210 214.786 C 260.431 211.799,258.192 209.321,258.233 209.281 C 258.273 209.240,259.404 209.027,260.745 208.808 C 267.085 207.772,275.522 206.397,277.637 206.054 C 278.926 205.846,282.397 205.283,285.352 204.804 C 288.306 204.324,291.953 203.738,293.457 203.500 C 294.961 203.263,296.261 203.007,296.345 202.933 C 296.430 202.859,291.683 200.617,285.798 197.950 C 279.913 195.284,274.395 192.778,273.535 192.383 C 272.676 191.987,271.028 191.242,269.873 190.728 C 267.361 189.610,267.397 189.798,269.400 188.261 C 273.714 184.947,289.648 172.396,289.600 172.348 C 289.552 172.300,283.481 173.828,274.414 176.172 C 263.930 178.881,259.900 179.887,259.826 179.813 C 259.779 179.766,262.657 173.237,266.221 165.303 C 269.785 157.370,274.576 146.707,276.868 141.607 C 279.159 136.508,280.999 132.301,280.956 132.258 C 280.870 132.172,279.990 132.921,273.423 138.678 C 270.906 140.884,266.343 144.873,263.281 147.543 C 260.220 150.213,257.407 152.672,257.031 153.008 C 256.655 153.344,253.535 156.071,250.098 159.067 C 246.660 162.064,243.664 164.680,243.439 164.880 L 243.031 165.244 241.564 162.065 C 240.757 160.317,238.707 155.876,237.008 152.197 C 235.310 148.518,233.869 145.510,233.806 145.513 C 233.743 145.516,231.280 151.822,228.334 159.527 C 222.040 175.982,222.668 174.511,222.310 173.633 C 222.056 173.010,220.624 169.683,214.450 155.371 C 213.292 152.686,209.692 144.336,206.449 136.816 C 203.207 129.297,200.496 123.084,200.424 123.010 C 200.352 122.937,199.318 124.211,198.126 125.842 M285.792 124.196 C 284.959 124.935,283.838 125.951,283.301 126.455 C 282.764 126.958,281.313 128.191,280.078 129.195 C 278.843 130.199,276.953 131.820,275.879 132.796 C 274.805 133.773,273.091 135.248,272.070 136.074 C 269.887 137.840,266.444 140.802,264.637 142.470 C 263.932 143.120,262.794 144.092,262.108 144.629 C 261.422 145.166,259.405 146.880,257.626 148.438 C 255.847 149.995,253.559 151.973,252.542 152.832 C 251.524 153.691,249.942 155.054,249.025 155.859 C 248.108 156.665,247.054 157.561,246.683 157.851 C 246.312 158.141,246.060 158.430,246.123 158.493 C 246.233 158.603,248.537 156.664,260.059 146.768 C 261.777 145.292,263.659 143.680,264.241 143.185 C 264.822 142.690,266.712 141.070,268.440 139.584 C 274.168 134.659,276.246 132.879,278.613 130.867 C 281.494 128.419,281.326 128.563,284.716 125.641 C 287.794 122.987,287.809 122.977,287.401 123.877 C 287.096 124.548,282.695 135.129,282.400 135.901 C 282.286 136.197,283.043 135.659,284.597 134.338 C 292.881 127.298,292.383 127.687,292.095 128.475 C 291.950 128.874,291.076 130.993,290.153 133.186 C 289.230 135.379,288.506 137.204,288.544 137.242 C 288.701 137.399,292.578 128.380,292.578 127.858 C 292.578 127.333,292.264 127.482,290.874 128.666 C 290.146 129.286,288.628 130.550,287.500 131.473 C 286.372 132.397,284.925 133.643,284.284 134.242 C 282.763 135.664,282.762 135.707,284.344 132.001 C 288.549 122.148,288.638 121.671,285.792 124.196 M284.456 146.800 C 280.100 157.216,280.339 156.619,280.638 156.339 C 280.998 156.003,288.574 137.728,288.418 137.572 C 288.378 137.532,286.595 141.684,284.456 146.800 M233.446 137.939 C 233.339 138.074,232.612 140.029,231.830 142.285 C 231.049 144.541,230.341 146.476,230.257 146.586 C 230.091 146.804,226.864 155.546,225.187 160.322 C 224.427 162.486,224.094 163.220,223.989 162.959 C 223.909 162.760,223.309 161.376,222.657 159.884 C 221.499 157.237,219.616 152.650,218.559 149.902 C 218.270 149.150,217.545 147.393,216.950 145.996 C 216.354 144.600,215.452 142.468,214.946 141.260 C 214.440 140.052,213.945 139.013,213.847 138.952 C 213.635 138.821,213.845 139.361,216.214 145.020 C 217.203 147.383,219.369 152.565,221.027 156.536 C 222.685 160.506,224.063 163.776,224.089 163.803 C 224.138 163.851,225.227 160.968,227.715 154.199 C 231.054 145.118,231.724 143.299,232.662 140.771 C 233.519 138.459,233.984 137.579,233.984 138.269 C 233.984 138.563,237.104 144.819,237.281 144.880 C 237.370 144.910,237.623 144.471,237.843 143.903 C 238.063 143.336,238.339 142.893,238.457 142.920 C 238.710 142.977,238.730 142.776,238.505 142.422 C 238.289 142.082,238.067 142.382,237.600 143.642 L 237.243 144.609 236.756 143.545 C 234.153 137.859,233.880 137.397,233.446 137.939 M240.902 147.726 C 243.150 152.364,243.538 153.123,243.549 152.904 C 243.568 152.503,239.054 143.164,238.840 143.164 C 238.758 143.164,239.686 145.217,240.902 147.726 M243.837 153.809 C 244.015 154.238,244.249 154.678,244.357 154.785 C 244.466 154.893,244.387 154.606,244.182 154.148 C 243.701 153.070,243.414 152.788,243.837 153.809 M277.640 163.133 C 276.910 164.879,275.668 167.842,274.880 169.715 C 274.092 171.589,273.467 173.141,273.491 173.164 C 273.515 173.187,274.810 172.912,276.367 172.552 C 291.754 168.996,298.103 167.569,298.182 167.648 C 298.234 167.700,296.763 169.291,294.914 171.183 C 293.064 173.075,291.587 174.659,291.630 174.703 C 291.706 174.779,297.735 173.475,301.146 172.645 C 302.045 172.426,302.826 172.292,302.880 172.346 C 302.934 172.401,299.384 176.118,294.991 180.607 C 285.044 190.771,283.507 192.360,283.454 192.535 C 283.431 192.613,285.540 193.639,288.141 194.816 C 293.103 197.061,295.256 198.045,297.612 199.143 C 298.393 199.507,299.065 199.805,299.105 199.805 C 299.146 199.805,300.176 200.271,301.396 200.840 C 302.615 201.410,304.860 202.442,306.383 203.135 C 307.907 203.827,309.049 204.450,308.922 204.519 C 308.795 204.589,306.691 204.976,304.247 205.381 C 301.802 205.786,299.841 206.156,299.888 206.203 C 299.969 206.284,302.576 205.901,307.422 205.096 C 309.920 204.681,310.086 204.425,308.348 203.669 C 303.673 201.638,299.873 199.940,299.707 199.808 C 299.471 199.621,291.276 195.878,288.672 194.768 C 285.772 193.531,283.789 192.599,283.789 192.471 C 283.789 192.407,287.458 188.603,291.943 184.018 C 301.998 173.740,303.206 172.487,303.288 172.255 C 303.393 171.957,302.292 172.041,300.549 172.466 C 299.656 172.683,297.739 173.122,296.289 173.441 C 294.839 173.760,293.311 174.103,292.893 174.203 C 292.172 174.376,292.298 174.219,295.383 171.115 C 298.513 167.966,298.975 167.383,298.339 167.383 C 297.952 167.383,293.900 168.256,287.500 169.717 C 284.653 170.367,280.918 171.211,279.199 171.592 C 277.480 171.974,275.811 172.361,275.488 172.453 C 273.702 172.965,273.608 173.514,276.508 166.483 C 277.951 162.984,279.094 160.084,279.049 160.039 C 279.004 159.993,278.370 161.386,277.640 163.133 M132.129 184.090 C 132.021 184.131,130.527 184.345,128.809 184.567 C 127.090 184.788,124.717 185.099,123.535 185.259 C 122.354 185.419,119.761 185.768,117.773 186.035 C 115.786 186.302,113.853 186.567,113.477 186.624 C 112.877 186.715,108.044 187.362,104.004 187.892 C 103.252 187.991,101.318 188.252,99.707 188.473 C 98.096 188.694,96.144 188.959,95.370 189.061 C 92.316 189.463,92.273 189.668,94.971 190.997 C 96.072 191.539,97.676 192.357,98.535 192.814 L 100.098 193.646 99.219 193.815 C 97.937 194.060,97.852 194.099,97.852 194.426 C 97.852 194.721,104.432 198.173,104.625 197.979 C 104.675 197.930,103.369 197.210,101.723 196.381 C 97.638 194.323,97.604 194.280,99.866 194.022 C 101.273 193.861,101.396 193.963,97.168 191.788 C 95.234 190.793,93.616 189.948,93.571 189.911 C 93.351 189.729,93.930 189.597,96.511 189.243 C 98.054 189.031,101.821 188.512,104.883 188.090 C 107.944 187.667,111.812 187.143,113.477 186.925 C 115.142 186.706,117.075 186.437,117.773 186.326 C 118.881 186.150,126.171 185.137,130.469 184.562 C 133.245 184.190,134.022 184.032,133.105 184.023 C 132.676 184.019,132.236 184.049,132.129 184.090 M151.462 186.732 C 153.852 187.470,155.664 189.869,155.664 192.292 L 155.664 193.164 154.004 193.164 L 152.344 193.164 152.344 192.620 C 152.344 189.654,148.271 188.545,146.454 191.016 C 145.534 192.267,145.411 198.479,146.271 200.256 C 147.537 202.872,151.708 202.449,152.268 199.648 L 152.393 199.023 150.220 199.023 L 148.047 199.023 148.047 197.363 L 148.047 195.703 151.855 195.703 L 155.664 195.703 155.664 200.293 L 155.664 204.883 154.199 204.883 L 152.734 204.883 152.734 203.906 C 152.734 202.707,152.412 202.625,151.742 203.653 C 150.320 205.832,146.622 205.827,144.438 203.643 C 142.668 201.873,142.481 201.132,142.481 195.898 C 142.481 191.712,142.503 191.449,142.950 190.338 C 144.254 187.100,147.795 185.600,151.462 186.732 M263.321 186.868 C 265.335 187.759,266.693 189.638,266.967 191.910 C 267.146 193.396,267.088 193.437,265.014 193.327 L 263.780 193.262 263.635 192.413 C 263.224 189.999,260.893 188.880,258.767 190.075 C 257.367 190.862,257.129 191.695,257.129 195.801 C 257.129 199.052,257.162 199.383,257.568 200.208 C 258.856 202.820,263.052 202.437,263.596 199.658 L 263.721 199.023 261.548 199.023 L 259.375 199.023 259.375 197.363 L 259.375 195.703 263.281 195.703 L 267.188 195.703 267.188 200.293 L 267.188 204.883 265.625 204.883 C 264.275 204.883,264.060 204.836,264.042 204.541 C 264.030 204.353,264.008 203.936,263.993 203.613 C 263.956 202.836,263.606 202.873,263.049 203.711 C 261.095 206.651,255.790 205.293,254.273 201.465 C 253.532 199.594,253.562 191.835,254.317 190.225 C 255.894 186.862,259.917 185.362,263.321 186.868 M179.589 186.768 C 179.735 187.193,180.664 199.852,180.664 201.424 C 180.664 202.632,180.722 202.930,180.957 202.930 C 181.183 202.930,181.250 202.674,181.251 201.807 C 181.251 201.189,181.335 199.717,181.438 198.535 C 181.540 197.354,181.762 194.453,181.930 192.090 C 182.098 189.727,182.282 187.505,182.338 187.153 L 182.442 186.513 185.313 186.567 L 188.184 186.621 188.234 195.752 L 188.285 204.883 186.834 204.883 L 185.383 204.883 185.248 203.629 C 185.097 202.217,185.267 191.578,185.470 189.697 C 185.583 188.659,185.556 188.477,185.294 188.477 C 184.907 188.477,184.900 188.531,184.279 196.387 C 184.007 199.824,183.731 203.142,183.664 203.760 L 183.543 204.883 181.033 204.883 C 178.588 204.883,178.521 204.871,178.428 204.443 C 178.376 204.202,178.056 200.576,177.717 196.387 C 177.377 192.197,177.030 188.694,176.946 188.601 C 176.578 188.199,176.473 188.755,176.593 190.460 C 176.663 191.464,176.729 195.120,176.739 198.584 L 176.758 204.883 175.195 204.883 L 173.633 204.883 173.633 195.833 C 173.633 190.856,173.691 186.725,173.763 186.654 C 174.019 186.398,179.498 186.505,179.589 186.768 M235.156 188.178 L 235.156 189.832 232.803 189.887 L 230.449 189.941 230.463 196.994 C 230.481 205.432,230.662 204.688,228.592 204.688 L 226.953 204.688 226.953 197.266 L 226.953 189.844 224.512 189.844 L 222.070 189.844 222.070 188.184 L 222.070 186.523 228.613 186.523 L 235.156 186.523 235.156 188.178 M168.903 189.307 C 169.490 191.730,172.369 203.782,172.544 204.548 C 172.616 204.866,172.468 204.892,170.845 204.841 L 169.066 204.785 168.734 203.418 C 168.552 202.666,168.347 201.809,168.280 201.514 L 168.157 200.977 165.068 200.977 L 161.979 200.977 161.543 202.930 L 161.106 204.883 159.362 204.883 C 158.402 204.883,157.617 204.801,157.617 204.700 C 157.617 204.504,161.673 187.369,161.816 186.963 C 161.880 186.781,162.715 186.719,165.089 186.719 L 168.276 186.719 168.903 189.307 M202.539 188.379 L 202.539 190.039 198.535 190.039 L 194.531 190.039 194.531 192.090 L 194.531 194.141 198.340 194.141 L 202.148 194.141 202.148 195.801 L 202.148 197.461 198.340 197.461 L 194.531 197.461 194.531 199.508 L 194.531 201.555 198.668 201.607 L 202.804 201.660 202.818 203.223 L 202.832 204.785 196.924 204.837 L 191.016 204.889 191.016 195.804 L 191.016 186.719 196.777 186.719 L 202.539 186.719 202.539 188.379 M247.854 186.865 C 247.855 186.946,248.383 189.209,249.027 191.895 C 249.672 194.580,250.596 198.447,251.082 200.488 C 251.567 202.529,252.012 204.353,252.070 204.541 C 252.165 204.850,251.998 204.883,250.350 204.883 L 248.526 204.883 248.157 203.174 C 247.954 202.234,247.749 201.355,247.701 201.221 C 247.637 201.039,246.823 200.977,244.543 200.977 L 241.471 200.977 241.035 202.930 L 240.599 204.883 238.828 204.883 L 237.058 204.883 237.172 204.248 C 237.305 203.509,241.176 187.326,241.306 186.963 C 241.404 186.691,247.850 186.595,247.854 186.865 M164.768 188.818 C 164.712 189.006,164.264 190.918,163.773 193.066 C 163.282 195.215,162.833 197.126,162.775 197.314 C 162.678 197.627,162.872 197.656,165.039 197.656 C 167.203 197.656,167.401 197.626,167.313 197.314 C 167.261 197.126,166.807 195.127,166.304 192.871 C 165.802 190.615,165.350 188.704,165.301 188.623 C 165.144 188.366,164.873 188.465,164.768 188.818 M244.263 188.808 C 244.205 189.002,243.758 190.917,243.269 193.064 C 242.780 195.211,242.331 197.122,242.271 197.312 C 242.170 197.628,242.355 197.656,244.518 197.656 C 245.814 197.656,246.872 197.590,246.868 197.510 C 246.864 197.429,246.402 195.393,245.842 192.985 C 244.894 188.908,244.526 187.933,244.263 188.808 M108.750 200.183 C 109.237 200.599,121.672 206.909,121.784 206.797 C 121.821 206.760,120.780 206.181,119.471 205.512 C 118.161 204.842,115.112 203.283,112.695 202.047 C 110.278 200.811,108.503 199.972,108.750 200.183 M298.682 206.385 C 298.870 206.434,299.177 206.434,299.365 206.385 C 299.553 206.336,299.399 206.295,299.023 206.295 C 298.647 206.295,298.494 206.336,298.682 206.385 M294.336 207.031 C 293.677 207.170,293.673 207.175,294.238 207.178 C 294.561 207.179,295.088 207.113,295.410 207.031 C 296.221 206.825,295.316 206.825,294.336 207.031 M291.846 207.557 C 292.034 207.606,292.341 207.606,292.529 207.557 C 292.717 207.507,292.563 207.467,292.188 207.467 C 291.812 207.467,291.658 207.507,291.846 207.557 M124.219 208.073 C 124.219 208.311,132.575 212.607,132.732 212.450 C 132.774 212.408,130.876 211.385,128.514 210.177 C 126.151 208.969,124.219 208.022,124.219 208.073 M287.402 208.218 C 286.973 208.309,286.094 208.469,285.449 208.574 C 282.658 209.027,275.599 210.255,270.703 211.139 C 269.468 211.362,268.063 211.606,267.580 211.682 C 266.167 211.905,266.425 212.445,269.517 215.723 C 270.680 216.956,271.622 217.734,270.693 216.694 C 269.473 215.328,266.992 212.341,266.992 212.237 C 266.992 212.100,268.214 211.862,274.121 210.850 C 284.969 208.991,288.363 208.372,288.658 208.199 C 289.051 207.969,288.542 207.977,287.402 208.218 M132.031 214.566 C 130.903 215.366,127.432 217.739,124.316 219.839 C 116.443 225.146,114.756 226.342,114.683 226.669 C 114.628 226.916,116.657 226.947,130.210 226.905 L 145.801 226.858 130.420 226.807 C 121.960 226.778,115.043 226.690,115.047 226.610 C 115.052 226.530,116.085 225.777,117.342 224.936 C 119.983 223.171,124.083 220.384,126.758 218.536 C 127.778 217.831,129.863 216.399,131.391 215.355 C 133.978 213.587,134.633 213.068,134.240 213.098 C 134.153 213.105,133.159 213.765,132.031 214.566 M273.360 219.543 C 273.908 220.127,275.964 222.451,277.929 224.707 C 279.893 226.963,282.004 229.380,282.619 230.078 C 283.234 230.776,286.043 233.984,288.862 237.207 C 291.681 240.430,294.219 243.331,294.503 243.655 C 294.787 243.979,295.590 244.902,296.288 245.706 C 297.367 246.949,298.408 248.136,302.528 252.813 C 303.275 253.661,303.148 253.598,293.652 248.396 C 288.926 245.806,284.487 243.379,283.789 243.003 C 281.456 241.744,279.006 240.386,278.809 240.242 C 278.568 240.067,277.930 239.832,277.930 239.920 C 277.930 240.078,282.610 242.691,290.723 247.064 C 292.764 248.164,296.279 250.105,298.535 251.378 C 303.310 254.072,304.059 254.304,302.773 252.685 C 302.044 251.768,298.831 248.098,297.354 246.496 C 295.971 244.994,292.592 241.106,291.576 239.844 C 291.186 239.360,290.132 238.164,289.232 237.185 C 287.632 235.443,286.379 234.009,283.194 230.273 C 282.323 229.253,281.376 228.194,281.089 227.920 C 280.347 227.214,277.939 224.479,277.142 223.438 C 276.292 222.327,273.945 219.817,273.047 219.058 C 272.606 218.686,272.717 218.859,273.360 219.543 M248.975 246.224 L 248.926 268.230 246.743 265.760 C 245.543 264.402,244.528 263.388,244.489 263.507 C 244.449 263.626,242.347 261.361,239.818 258.473 C 237.289 255.585,234.173 252.028,232.893 250.568 C 231.613 249.108,228.193 245.202,225.293 241.889 C 222.393 238.575,219.236 234.980,218.279 233.899 C 217.322 232.818,216.527 231.914,216.511 231.891 C 216.490 231.858,213.793 239.240,213.505 240.121 C 213.467 240.237,213.564 240.156,213.720 239.941 C 214.035 239.507,216.412 233.061,216.408 232.650 C 216.405 232.206,216.687 232.461,218.209 234.277 C 219.019 235.244,220.701 237.134,221.949 238.477 C 223.196 239.819,224.326 241.160,224.460 241.455 C 224.595 241.750,224.760 241.992,224.828 241.992 C 224.895 241.992,225.643 242.804,226.489 243.796 C 227.335 244.789,228.774 246.403,229.688 247.385 C 230.601 248.366,232.418 250.433,233.726 251.977 C 235.034 253.521,236.792 255.538,237.632 256.459 C 238.906 257.853,241.287 260.594,243.769 263.523 C 244.048 263.853,244.373 264.063,244.490 263.990 C 244.613 263.914,245.557 264.815,246.709 266.109 C 249.750 269.520,249.414 271.969,249.414 246.392 L 249.414 224.424 250.409 225.011 C 250.956 225.334,252.516 226.180,253.876 226.892 C 255.235 227.603,257.095 228.599,258.008 229.103 C 260.213 230.322,260.938 230.690,260.938 230.594 C 260.938 230.551,258.894 229.393,256.396 228.023 C 253.899 226.652,251.320 225.236,250.665 224.875 C 250.010 224.514,249.373 224.219,249.250 224.219 C 249.082 224.219,249.013 229.804,248.975 246.224 M190.683 227.017 C 189.909 227.573,185.488 230.614,180.858 233.776 C 176.228 236.938,172.385 239.613,172.318 239.721 C 172.102 240.071,174.945 238.185,181.152 233.862 C 182.119 233.188,184.996 231.235,187.546 229.520 L 192.182 226.403 192.401 227.215 C 192.606 227.977,194.064 233.066,195.208 237.012 C 195.488 237.979,196.060 239.824,196.479 241.113 C 196.898 242.402,197.648 244.907,198.144 246.680 C 201.142 257.376,201.169 257.438,201.948 255.322 C 202.176 254.705,202.507 253.812,202.684 253.338 L 203.007 252.477 203.244 253.240 C 203.374 253.660,203.758 254.927,204.097 256.055 C 205.783 261.661,205.930 261.886,206.631 259.912 C 206.869 259.241,207.622 257.153,208.304 255.273 C 210.562 249.050,213.097 241.743,213.023 241.669 C 212.984 241.629,211.388 245.905,209.477 251.170 C 207.567 256.435,205.949 260.742,205.883 260.742 C 205.816 260.742,205.243 258.962,204.610 256.787 C 202.861 250.782,203.163 251.138,202.165 253.904 C 201.698 255.201,201.288 256.236,201.255 256.203 C 201.222 256.170,200.933 255.223,200.612 254.097 C 199.915 251.655,199.068 248.768,198.149 245.703 C 197.235 242.654,194.073 231.894,193.241 229.004 C 192.337 225.864,192.374 225.975,192.223 225.992 C 192.150 226.000,191.457 226.461,190.683 227.017 M145.125 229.627 C 144.328 231.003,142.781 233.667,141.688 235.547 C 140.594 237.427,139.426 239.508,139.092 240.171 C 138.759 240.835,138.403 241.428,138.303 241.490 C 138.122 241.602,136.249 244.775,132.450 251.403 C 131.361 253.303,129.327 256.771,127.930 259.111 C 126.534 261.450,125.391 263.473,125.391 263.604 C 125.391 264.146,125.843 264.039,127.001 263.223 C 127.673 262.750,129.629 261.416,131.348 260.259 C 133.066 259.102,134.947 257.769,135.526 257.296 C 137.014 256.082,136.974 256.237,134.909 259.701 C 133.895 261.402,132.769 263.364,132.407 264.063 C 132.045 264.761,131.417 265.902,131.011 266.598 C 129.676 268.890,130.145 268.934,133.105 266.791 C 134.287 265.936,136.309 264.537,137.598 263.682 C 138.887 262.827,141.377 261.134,143.131 259.921 C 148.034 256.529,151.960 253.851,155.176 251.705 C 156.787 250.629,158.325 249.553,158.594 249.313 C 158.862 249.073,160.488 247.948,162.207 246.812 C 166.515 243.967,170.109 241.498,170.764 240.934 C 171.065 240.674,171.505 240.316,171.740 240.138 C 172.661 239.440,171.210 240.365,169.100 241.820 C 167.950 242.613,166.017 243.935,164.804 244.758 C 163.590 245.581,157.720 249.595,151.758 253.679 C 137.902 263.170,131.030 267.860,130.680 268.066 C 130.159 268.371,130.143 268.399,135.898 258.632 C 136.803 257.096,137.512 255.808,137.473 255.771 C 137.434 255.734,134.810 257.487,131.641 259.666 C 128.472 261.846,125.854 263.606,125.823 263.578 C 125.758 263.519,130.726 254.935,140.636 237.988 C 141.955 235.732,143.334 233.359,143.701 232.715 C 144.067 232.070,144.482 231.411,144.623 231.250 C 145.073 230.733,146.716 227.550,146.644 227.333 C 146.605 227.218,145.922 228.250,145.125 229.627 M261.133 230.743 C 261.133 230.804,261.748 231.164,262.500 231.543 C 263.252 231.922,263.867 232.188,263.867 232.134 C 263.867 232.081,263.318 231.751,262.646 231.401 C 261.109 230.599,261.133 230.610,261.133 230.743 M264.514 232.557 C 264.705 232.867,267.483 234.415,275.732 238.811 C 276.833 239.398,277.734 239.835,277.734 239.783 C 277.734 239.731,275.603 238.525,272.998 237.102 C 267.251 233.962,266.998 233.823,265.541 232.999 C 264.904 232.639,264.441 232.440,264.514 232.557 " stroke="none" fill="#f3d82e" fill-rule="evenodd"></path></g></svg>